<?xml version="1.0" encoding="utf-8"?>
<!-- Generator: Adobe Illustrator 23.0.2, SVG Export Plug-In . SVG Version: 6.00 Build 0)  -->
<svg version="1.1" id="图层_1" xmlns="http://www.w3.org/2000/svg" xmlns:xlink="http://www.w3.org/1999/xlink" x="0px" y="0px"
	 viewBox="0 0 187.7 84.7" style="enable-background:new 0 0 187.7 84.7;" xml:space="preserve">
<style type="text/css">
	.st0{fill:#FF7F26;}
</style>
<title>资源 3</title>
<g>
	<circle class="st0" cx="93.8" cy="34.1" r="11.3"/>
	<circle class="st0" cx="11.3" cy="34.1" r="11.3"/>
	<ellipse transform="matrix(0.7071 -0.7071 0.7071 0.7071 27.51 134.5446)" class="st0" cx="176.2" cy="34.1" rx="11.3" ry="11.3"/>
	<path class="st0" d="M180.4,67.9c-0.4-0.2-0.8-0.2-1.2-0.2c-18,0-32.8-14.1-33.9-32c0-0.7,0-1.3,0-2c0-0.2,0-0.4,0-0.4v-0.1V8.5
		c0-4.7-3.8-8.5-8.5-8.5c0,0,0,0,0,0c0,0,0,0-0.1,0c-4.7,0-8.5,3.8-8.5,8.5v24.7v0.1c0,0,0,0.2,0,0.4c0,0.7,0,1.3,0,2
		c-1.1,17.9-15.9,32-33.9,32c-0.1,0-0.3,0-0.4,0c-0.1,0-0.3,0-0.4,0c-7.9,0-15.6-2.7-21.6-7.8c-1.7-1.6-3-1.5-6.2,0.3
		c-2.8,1.6-9.5,4.9-11.5,5.9c9.5,11.5,23.5,18.2,38.3,18.5c0,0,0.1,0,0.1,0c0.9,0.2,1.8,0.2,2.7,0.1c17.3-0.3,32.5-9.3,41.5-22.7
		c9,13.4,24.1,22.4,41.4,22.7c4.7,0.6,8.9-2.7,9.5-7.3C188.3,72.8,185,68.5,180.4,67.9z"/>
	<path class="st0" d="M59.5,33.3L59.5,33.3V8.5C59.5,3.8,55.7,0,51,0c-4.7,0-8.5,3.8-8.5,8.5v26.4c-0.7,18.3-15.7,32.8-34,32.8
		c-0.3,0-0.7,0-1,0.2c-4.6,0.5-7.9,4.8-7.4,9.4c0.5,4.6,4.7,8,9.4,7.4c27.8-0.5,50-23.2,50-51C59.5,33.5,59.5,33.3,59.5,33.3z"/>
</g>
</svg>
