<?xml version="1.0" encoding="utf-8"?>
<!-- Generator: Adobe Illustrator 23.0.2, SVG Export Plug-In . SVG Version: 6.00 Build 0)  -->
<svg version="1.1" id="图层_1" xmlns="http://www.w3.org/2000/svg" xmlns:xlink="http://www.w3.org/1999/xlink" x="0px" y="0px"
	 viewBox="0 0 187.7 84.7" style="enable-background:new 0 0 187.7 84.7;" xml:space="preserve">
<style type="text/css">
	.st0{fill:#FFFFFF;}
</style>
<title>资源 3</title>
<g id="图层_2_1_">
	<g id="图层_1-2">
		<path class="st0" d="M94.3,67.7L94.3,67.7c18.3,0,33.3-14.5,34-32.8l0,0V8.5c0-4.7,3.8-8.5,8.5-8.5s8.5,3.8,8.5,8.5v24.7v0.1
			c0,0,0,0.2,0,0.4c0,27.8-22.2,50.5-50,51c-4.7,0.6-8.9-2.8-9.4-7.4s2.8-8.9,7.4-9.4C93.6,67.7,93.9,67.7,94.3,67.7z"/>
		<circle class="st0" cx="93.8" cy="34.1" r="11.3"/>
		<circle class="st0" cx="11.3" cy="34.1" r="11.3"/>
		<circle class="st0" cx="176.2" cy="34.1" r="11.3"/>
		<path class="st0" d="M179.2,67.7L179.2,67.7c-18.3,0-33.3-14.5-34-32.8l0,0V8.5c0-4.7-3.8-8.5-8.5-8.5s-8.5,3.8-8.5,8.5v24.7v0.1
			c0,0,0,0.2,0,0.4c0,27.8,22.2,50.5,50,51c4.7,0.6,8.9-2.7,9.5-7.3s-2.7-8.9-7.3-9.5C180,67.7,179.6,67.7,179.2,67.7L179.2,67.7z"
			/>
		<path class="st0" d="M8.5,67.7L8.5,67.7c18.3,0,33.3-14.5,34-32.8l0,0V8.5C42.5,3.8,46.3,0,51,0s8.5,3.8,8.5,8.5v24.7v0.1
			c0,0,0,0.2,0,0.4c0,27.8-22.2,50.5-50,51c-4.7,0.6-8.9-2.8-9.4-7.4s2.8-8.9,7.4-9.4C7.8,67.7,8.2,67.7,8.5,67.7z"/>
		<path class="st0" d="M93.5,67.7L93.5,67.7c-7.9,0-15.6-2.7-21.6-7.8l0,0c-1.7-1.6-3-1.5-6.2,0.3c-2.8,1.6-9.5,4.9-11.5,5.9
			c9.5,11.5,23.5,18.2,38.3,18.5c4.7,0.6,8.9-2.8,9.4-7.4c0.6-4.7-2.8-8.9-7.4-9.4C94.2,67.7,93.9,67.7,93.5,67.7z"/>
	</g>
</g>
</svg>
