<?xml version="1.0" encoding="utf-8"?>
<!-- Generator: Adobe Illustrator 22.0.1, SVG Export Plug-In . SVG Version: 6.00 Build 0)  -->
<svg version="1.1" id="图层_1" xmlns="http://www.w3.org/2000/svg" xmlns:xlink="http://www.w3.org/1999/xlink" x="0px" y="0px"
	 viewBox="0 0 965.2 472" style="enable-background:new 0 0 965.2 472;" xml:space="preserve">
<style type="text/css">
	.st0{fill:#FFFFFF;}
</style>
<g>
	<path class="st0" d="M128.7,97.6c-6.7,8.3-13.4,16.7-20.2,25c-4.8,5.8-10.1,11.1-14.5,17.2c-3.5,4.8-9.4,7-12,12.3
		c-1.1,2.3-3.2,4.6-1,7.4c0.7,0.8,0.4,1.9-0.3,2.2c-2.8,1.2-3.5,4.4-6.3,5.9c2.9,1.9,5.1,4.4,8.1,5.5c1.6,0.6,3.5-0.4,4.8,1.6
		c4.1,6.3,11.2,10.2,14.2,17.2c2.2,5,3.5,10.3,4.2,15.9c0.6,4-0.1,8,1,11.9c0.6,2.2-0.7,3.9-0.9,6c-0.6,6.8-2.6,13.2-5.2,19.5
		c-0.5,1.3-3.2,1.9-0.6,3.7c0,0-0.3,0.7-0.5,0.8c-3.8,2.4-5.6,6.1-6.9,10.3c-0.4,1.2-2,2.4-3.1,3.2c-5,3.6-8.3,8.9-13.1,12.6
		c-1.8,1.4-4.5,1.3-5.6,3.7c-0.1,0.2-1.3-0.1-2-0.1c0.3-0.7,0.4-1.9,1-2.1c5.2-2.4,8.7-6.8,12.7-10.7c5-4.9,8.8-10.8,11.4-17.2
		c0.9-2.3,1.5-4.8,2.8-7.1c0.5-0.9,1.1-2.5-0.4-3.1c-1.6-0.8-1.9,0.7-2.4,1.8c-5.9,12-13.8,22.7-25,30.1
		c-7.3,4.8-14.9,9.5-23.9,10.6c-1.1,0.1-2.7-0.5-2.3,2.3c0.2,1.6-3.5,1.7-4.4,0.9c-1.1-1-2-2.1-3.4-1.6c-2.4,0.9-5.2,1.4-6.4,4
		c-1,2.1-2.6,1.9-4.2,1.4c-5.9-2.1-10.6-6.9-11.8-12.1c-1-4.8-4.2-7.9-5.6-12c-0.8-2.4-0.5-6,0.8-8c2-3,1.8-6.5,3.7-9.4
		c3.6-5.5,5.9-11.8,10.4-16.8c4.6-5.1,11.7-6.6,17.8-3.7c0.9,0.5,2.4,0.7,1.9,2.5c-0.3,1.1,0.8,1.2,1.5,1.6c2.6,1.8,5.7,3.4,5,7.3
		c-0.4,2.6,3.4,1.9,2.8,4.6c-1.9-0.2-3.4-0.6-4.3-2.7c-1.1-2.6-3.9-2.9-6.1-4.1c-0.2-0.1-0.6-0.2-0.7-0.1c-3.2,4.4-6.1-1.1-9.6-0.4
		c-2,0.4-4.3,0.3-5.3,1.9c-1.5,2.4-5,4.2-2.5,8.3c0.7,1.1,0.1,4.6-0.9,6.3c-2.3,3.9-2.6,8-2.6,12.4c0,2.7-2.2,6.1,2.7,6.6
		c7,8,15.5,6.3,24.2,3.9c6.2-1.7,11.4-5.5,17.1-8.2c3.8-1.8,5.9-5.7,9.2-8.3c3.8-3.1,6.4-7.4,8.8-11.7c0.4-0.8,1.4-1.6,0.7-2.5
		c-1.6-2.1-0.7-2.3,1.4-2.3c2.3-0.1,1.6-2.6,2.6-3.7c1.4-1.7-0.5-4.9,2.7-5.7c0.6-5.6,2.1-11.1,3-16.6c0.4-2.5,0.2-6-0.8-9
		c-0.9-2.3-1.6-4.7-1.7-7.2c0-0.6-0.4-1.6-0.9-1.9c-4.5-2.5-6.1-7.8-10.2-10.4c-2.5-1.6-4.7-4.4-8.2-4.4c-1.1,0-2-0.4-2.9-1.1
		c-4.9-3.7-10.3-2.4-15.7-1.6c-5.2,0.8-10.3,2-15.6,2.5c-6.6,0.6-11.8-2.4-17.5-4.2c-5-1.6-8.5-5.7-12.3-9.1
		c-0.3-0.2-0.3-0.9-0.2-1.4c0.5-3.8-0.9-7.3-1.7-10.9c-1.4-6.2-2.1-12.6-2.2-19.1c0-4-0.2-8,0.6-11.7c0.9-3.8,0.9-7.7,2.3-11.4
		c0.2-0.5,0.3-1.1,0.5-1.6c0.5-1.5-3.2-1.2-1.4-3.1c4.9-5.2,8.9-11.9,17.6-11.3c0.7,0.1,1,0.5,1.5,0.9c2.6,2.2,5.4,3.2,8.3,0.6
		c0.6-0.5,1.2-0.8,1.9-0.4c0.9,0.5,0.6,1.2,0.2,1.8c-2.2,4.2,1.2,8.4,0,12.6c-0.2,0.8,1,0.9,1.4,1.3c1.8,2,4.9,0.4,6.8,2.6
		c0.5,0.5,3-0.1,3.2-1.5c0.6-5.5,5.4-8.4,7.4-13.1c1.3-3.2,2.9-6.6,4.8-9.1c2-2.7,3.7-5.9,6.1-8.4c3-3,5.1-6.6,7.8-9.8
		c5.6-6.4,10.6-13.3,17.6-18.3c1.4-1,2.9-2.1,3-4.1c0.1-1.2,0.8-1.4,1.8-1.2c1.5,0.3,2.2-0.6,2.6-1.9c1.8,0.1,3.2-1,4.2-2.2
		c1.1-1.4,2.2-1.4,3.6-1c5-1.8,9.1,2.3,13.8,2.1c5.9,2.6,9.5,8.2,15,11.3c2.2,1.2,3.5,3.2,5.1,4.8c2.8,2.9,6.7,4.2,9.3,7.4
		c1.3,1.6,0.4,1.9-0.6,2.6c-1.2,0.3-2.6,0.9-3.5-0.5c-1.6-2.7-2.6-0.6-3.7,0.4c-1.9,1.8,0.6,2.1,1.3,2.6c1.5,1.4,3.6,2.2,3.2,4.8
		c-4.2,1.1-7.1,3.6-8.5,7.8c-0.5,0.4-1,0.9-1.5,1.3C131.5,94.1,130.1,95.8,128.7,97.6z M95.2,63c-1.4,0.1-2.4,0.7-3.5,1.5
		c-2.4,1.7-3.4,5-5.5,6.3C81,74.2,78,79.3,74.3,83.7c-9.1,11.2-16.6,23.5-23.1,36.3c-3.7,7.2-7.8,14.2-8.5,22.5
		c-0.1,1-1.2,2.6,0.9,2.8c1.4,0.1,2.1-0.6,2.3-2.3c0.2-2.3,0.5-4.8,2.6-6.4c0.8-0.6,1.5-1.2,2.6-0.4c0.9,0.7,0.4,1.3,0.2,2.1
		c-0.8,3.1-1.3,6.3-2.1,9.5c-0.3,1.4-0.1,3.4,0.6,3.7c2.7,1,3.3,3.6,4.7,5.5c1.1,1.4,2.5,1.5,3.3,0.3c1.8-2.7,4.3-3.4,7.2-4.2
		c1.8-0.5,3.8-1,5.1-2.5c5.1-6.1,12.4-9.7,17.9-15.7c3.7-4,7.2-8.4,11.7-11.7c1.2-0.9,2.5-2.8,3.7-4.3c2.6-3.4,4.6-7.1,7.8-10.1
		c1.9-1.8,5-3.2,5.7-5.5c1.3-4.4,4.4-7.1,7.5-10c3.8-3.6,4.3-9.7,9.5-12.5c-1.1-0.8-2.1-1.2-2.3-1.8c-2-6.5-8.9-8.4-12.5-13.2
		c-1-1.3-2.3-2.6-4.3-1.7c-0.7,0.3-1.2-0.2-1.5-0.7c-2.6-4.1-7.1-1.9-9.7-1.5c-3.7,0.6-6.2,5.4-8.1,8.8c-1.3,2.3-2.8,4.2-4.5,6.1
		c-0.9,1-1.7,1.3-2.8-0.1c-1.1-1.5,0.1-1.6,0.6-2.4c0.8-1.4,3.1-0.5,3.3-2.2C92.6,68.7,94.6,66,95.2,63c2.8,0,4.4-2.2,7-3.5
		C97.8,58.7,96.2,59.6,95.2,63z M44.4,164.1c-4.6-4-7.6-8-9.9-12.7c-3-6.1-0.9-11.6,0.9-17.2c1-3.3,2.7-6.3,3.9-9.3
		c-4.4-2.3-7.8,0.3-11.5,1.2c-1.1,0.2-1.7,1.2-0.9,1.8c4.7,3.1,1.6,4.2-1.1,6c-3.8,2.5-2.2,7-2.5,10.5c-0.3,4.6,1,9.3,1.7,13.9
		c0.7,4.4,3.2,6.1,7.7,5.3c0.6-0.1,1.4-0.3,1.7-0.1C37.5,165.7,40.6,163.5,44.4,164.1z M98.6,227c-1.1,3.2-2,5.7-3,8.2
		c-0.3,0.7-1.6,1-0.7,2c0.3,0.4,1.1,0.6,1.6,0.5c1.1-0.1,1.3-0.9,1.3-2.1c0-1.5,0.1-3.4,1.2-4.2C101.8,229.7,99.9,228.7,98.6,227z"
		/>
	<path class="st0" d="M237.9,102.2c1.1-1.7,4.1-2.3,3.1-5.4c-0.2-0.4,0.7-0.8,1.4-0.9c0.5,0,1.6-0.3,1.1-0.8
		c-1.8-1.8-0.9-3.1,0.5-4.1c2.6-2,4.9-4.7,8.4-5.1c1.1-0.1,1.8,0.6,2.4,1.4c1.8,2.7,3.1,0.3,3.6-0.8c0.7-1.4,1.4-2.6,2.4-3.9
		c4.7-6.1,8.5-12.8,11.3-20.1c1.4-3.7,4.7-6.7,7.3-9.9c0.8-0.9,1.9-1.9,1.8-2.9c-0.3-3.8,3.1-4.4,5.1-6.1c2-1.8,3.3-4.3,6.8-4.6
		c6-0.6,10.1,1.5,13.5,6.4c3.1,4.5,4.4,9.5,5.1,14.7c-2.3,1-3.8,2.3-2,5c0.6,0.9,0.5,2.3,0.7,3.5c-0.7,1.8-4,2.3-2.8,5.2
		c-0.9,1-1,2.2-1.3,3.6c-0.6,2.9,3.4,5,1.2,8c-0.3,2.1-2.2,2.2-3.9,3c1.7-9.7,0.7-19.1-0.8-28.5c-0.5-2.9-1.5-5.8-2.9-8.3
		c-2.3-4.2-10.2-3.4-13.2,1.3c-1.2,1.9-2.1,4-3.1,6c-1.5,0-0.9,1.4-1.3,2.1c-0.3,0.1-0.6,0.2-0.9,0.3c-2.5,0.2-2.4,2.3-3,3.9
		c-0.7,0.2-0.7,0.7-0.7,1.3c-1.7,1.2,0.4,3.1-0.8,4.4c-0.7,0.6-1.7,1-0.9,2.2c-3.3,2.5-3.8,6.6-5.7,10c-0.5,0.5-1,1-1.5,1.4
		c3,2.2-0.9,3.5-0.7,5.5c0.3,2.4-1.5,4.6-0.8,7.1c0.2,0.8-0.5,1.9-1.3,2.4c-3.5,2.1-3.1,6-4.5,9.1c-1.6,3.5-1.6,7.3-4.2,10.8
		c-1.8,2.4-2.5,6.9-2.4,10.6c-1.8,2.6-2,5.6-2.4,8.5c-0.4,0.5-0.4,1-0.1,1.5c-0.2,1.8-2.3,4.6,0.7,4.9c4.3,0.5,7.1,3.3,10.5,5.2
		c0.3,0.6,0.9,0.6,1.4,0.5c1.5,1.9,3.8,2,5.8,2.8c0,0,0.2,0.2,0.2,0.2c-0.1,3.2,1.1,5.5,3.9,7.3c3.3,2.1,2.8,5.1-0.5,7.5
		c-2.5,1.8-5.3,3.3-6.5,6.7c-1.4,3.9-3.9,7.4-6,10.9c-2.2,3.7-1.1,4.5,1.6,6.2c5.8,3.7,13,2.9,19.1,6c1.7,0.9,2.8,1.9,4.1,3.1
		c0.7,0.6,0.7,3.2,2.2,1.5c0.8-0.9,3-2.1,1.7-4.5c-0.9-1.8-3.7-2-3.8-3.7c-0.2-3.3-0.3-6.7-0.5-10c-0.3-4,3.5-7.8,1-12.3
		c-0.5-0.8-0.8-2.8,0.9-3.8c0.3-0.2,0.6-0.7,0.5-0.8c-2.3-2.7-0.1-5.9-1-8.8c0,0,0,0,0,0c0.6-1,3.8-1.6,0.5-3.2
		c-0.1-0.7-0.3-1.4-0.4-2.1c0.8-1.2,0.3-2.4,0.2-3.6c0.8-0.9,0.9-2,0.9-3.1c0.7-0.4,1.2-1.8,2.3-0.6c0.5,0.5,1.2,0.9,0.5,1.8
		c-1.6,2.1,0.2,3.6,1.3,5c1.6,2.2-2,2.5-1.2,5.1c1.2,3.9,2.6,8.6-1.8,12.2c-1.2,1-0.9,2.9,0.6,4c1.2,0.9,1.2,1.6,0.7,3.1
		c-0.6,1.8-2.2,4.7,1.7,5.8c0.6,0.2,2.4,1.3,2,3c-0.9,3.8,1.2,7.3,1.6,11c0.4,3.1-0.3,6.7,1.5,9.7c0,0.2,0.1,0.5,0.2,0.6
		c1.3,3,1,6.3,1.9,9.5c3.4,11.8,7,23.6,8.7,35.8c-0.2,2,0.1,3.9,0.6,5.8c0.2,3.4,0.4,6.7,0.6,10.1c-0.2,0.2-0.4,0.3-0.6,0.5
		c-1.2,0.4-2.3,1-3.2,1.9c1.3,0.9,2.2-0.1,3.3-0.5c1.7,4.4-0.3,8.7-0.3,13c0,0.4-0.2,0.9-0.3,1.3c-0.1,1.3,2,2.5,0.6,3.5
		c-3.2,2.3-3.7,7.2-8,8.5c-0.6,0.2-1.3,0.9-1.9,0.3c-0.7-0.6,0-1.3,0.2-2c0.3-1,2.1-1.8,0.9-3.1c-1.1-1.1-2.5-0.6-3.7,0
		c-1.9,1-4.1,1.6-5.7,3.3c-2.2,2.2-4.1-0.4-5.9-1.2c-1.9-0.8-3.1-3-5.2-3.8c-0.4-0.6-0.7-1.2-1.1-1.7c1.2-3,3.3-2.4,5.4-1.3
		c4.3,2.3,9.2,1,11.6-3.1c1.5-2.6,2.5-5.4,4.4-7.8c1.4-1.8,0.3-4.3-0.1-6.1c-0.9-3.6,1.3-7,0.1-10.5c-0.1-0.2,0.4-0.9,0.8-1.1
		c0.8-0.4,1,0.3,1.3,0.8c0.3,0.5,0.6,1.1,1,1.5c0.8,0.7-0.2,3.1,1.7,2.4c1.2-0.5,0.9-2.5,0.2-3.6c-2.3-3.5-2.1-8.2-4-11.1
		c-1.9-2.9-2.1-6.1-3.8-8.8c-0.9-1.3-1-2.7-1-4.1c0-3.6-0.5-7-2.3-10.3c-0.9-1.6-2.3-3.6-0.5-5.6c0.1-0.1,0.1-0.3,0-0.3
		c-3.3-1.6-2-5.6-4.1-7.8c-0.4-0.4-1.1-0.9-1.5-0.8c-3.9,1.2-7.5-1.1-11.3-0.6c-5,0.6-8.3-3.1-12.5-4.6c-0.3-0.1-0.5-0.8-0.5-1.2
		c0.1-0.9,1.6-2.1-0.3-2.5c-1.3-0.3-2.8-1.8-4.1,0.2c-0.4,0.7-1.1,0.8-1.8,0.2c-4.4-4-5.5-8.4-3.5-14.1c0.2-0.4,0.4-0.9,0.4-1.3
		c-0.2-2.4,1.2-7.1,3.4-8.2c3.2-1.6,6-2.6,5.5-7.4c-0.2-1.7,2.5-3.6,2.5-6.8c0-4.6-2.6-6.8-5.3-8.3c-2.8-1.5-5.9-3.1-9.3-3.1
		c-1,0-2.5-1.5-2.8-0.2c-0.5,2-2.9,3.4-2.2,5.7c1.7,5.6,0.1,11.3,0.4,16.9c0.2,3.6,0.4,7.2,0.3,10.8c0,2.1,1.4,4.6-1.1,6.3
		c-0.8,0.5-0.5,1-0.2,1.8c1.2,2.8,1.7,5.5,1.3,8.8c-0.4,2.9,0.3,6-0.2,9.1c-0.2,1,0.7,2.1-0.7,2.7c-0.7,0.3-0.5,0.6-0.1,1.3
		c2.7,3.9,1.5,8.2-2.7,10.8c-2.2,1.3-7.2-0.8-8.9-3.7c-1.1-1.9-2.5-3.7-3.6-5.7c-2.3-3.8-1.9-8.1-2.5-12.3
		c-0.6-4.2,0.8-7.8,1.8-11.5c1.1-4-0.1-8,0-12c0.3-9.1,0.4-18.2,0.8-27.3c0.2-6,1.8-12.1,2.5-18.2c0.6-1.1,1.5-2.2,0.8-3.6
		c-0.9-1.7-0.3-3.4,0.2-5.1c0.1-0.7,0.1-1.4,0.2-2.1c1-1.3,1.5-2.7,1.4-4.4c0-0.7,0-1.4,0-2.1c0.8-0.8,1-1.5-0.1-2.2
		c0-0.5,0-1,0-1.5c2.2-1.7,1.3-4.4,2.2-6.5c1-1.3,0.9-2.8,0.7-4.3C239.3,104.2,239.2,103.1,237.9,102.2z"/>
	<path class="st0" d="M435.7,149.3c-1.4,0.2-2.1,1.1-2.1,2.4c-0.2,2.9-0.9,5.6-1.7,8.3c-0.5,1.6-0.2,2.8,1.2,3.7
		c-3,3.1-5.7,6.3-4.4,11.1c0.2,0.7-0.2,1.9,1.1,1.8c0.9,0,1.3-0.8,1.8-1.5c1.9-2.8,3.1-5.9,4.4-9c1.3-0.3,1.4-1.3,1.5-2.3
		c0.9-0.8,1.8-1.5,2.2-2.7c1.1-1.9,3.7-3.1,3-5.9c0.2-0.3,0.3-0.5,0.5-0.8c0.8,0.4,1.5,0.1,1.9-0.6c2.9-5.1,7.6-6.9,13.2-7
		c0.5,0.1,1,0.1,1.5,0.2c1.2,0.2,2.2,1,3.5,1.2c2.6,0.5,4,2.5,3.3,5.4c0.2,3.9-2.7,9,3.9,10.5c0.1,0,0,0.7,0.1,1
		c-3.9,1.8-6.1,0.6-7.6-3.4c-0.5-1.4-1.4-4.1-4.2-2.6c-0.3-1.7,1.2-1.6,1.5-2.5c0.3-0.7,0.1-2,0-1.9c-2.3,1.2-4.2-2.2-6.6-0.3
		c-3.6,2.7-6.7,5.7-9.2,9.6c-2.7,4.1-5.3,8.3-7.9,12.4c-2.2,3.5-1.8,7.2-2.3,10.9c-0.4,2.4-1.7,4.9-0.4,7.5c-1.4,0.4-0.6,1-0.1,1.5
		c0.1,1.8-1.8,3.1-1.1,5c-0.4,1.4-3,1.5-2.3,3.6c-0.3,0.1-0.4,0.3-0.3,0.6c-4.4,3.3-4.2,8.3-4.4,12.8c-0.2,3.1,0.6,6.3,0.3,9.6
		c-0.4,4.3,1.2,8.8-0.6,13.1c-0.2,0.5,0.4,1.3,0.7,1.9c1.1,2.3,2.4,4.6,0.3,7.1c-0.5,0.6-0.5,1.1,0.1,1.5c1.9,1.3,1.6,3.3,2.2,5.1
		c0.5,1.6,0.1,5.2,3.9,4.1c3.6,0.2-0.4,2.3,0.7,3.1c-0.5,0.4-0.5,0.9-0.3,1.5c-0.4,0.4-0.5,0.9-0.3,1.4c-0.4,0.8-0.4,1.5,0.1,2.2
		c-0.2,0.9-0.4,1.8-0.6,2.7c-0.2,1-0.4,2.4-1.8,1.9c-1-0.3-2.6-1.1-1-2.7c0.3-0.3,0.5-0.8,0-1.2c1.4-4.2-2.4-2.6-3.9-3.3
		c-1.4-0.7-3.7,0.5-4.2-2.2c-0.2-0.8-0.8-0.6-1.4-0.3c-0.5,0.3-1.1,0.6-1,1.3c0,0.7,0.6,1.1,1.2,1.2c1.8,0.2,3.2,0.9,4.1,2.4
		c-4.3,0-7.8-1.6-10.2-5.4c-2.2-3.5-3.2-7-3.6-11.2c-0.3-4-1.6-8.1-1.1-12.2c0.5-3.8-0.1-7.8,1.7-11.4c0.7-1.3-0.4-2.3-0.2-3.7
		c0.4-2.5,1.2-4.8,1.7-7.2c1.3-0.9,1-2.2,0.9-3.5c0.2-0.7,0.4-1.4,0.7-2c1-2.5,3.5-4.8,0.4-7.5c0.1-1.1,0.9-1.2,1.8-1.2
		c1.2,0.1,1.6-0.6,1.9-1.6c1.7-5.4,1.8-10.9,2.6-16.4c0.1-0.5,0.1-0.9,0.2-1.4c0.9-1.3,0.9-2.8,1.1-4.3c0.5-0.8,0.4-1.5-0.1-2.3
		c0.2-0.8,1.4-1.1,1.2-2.2c-0.1-0.8-0.7-1.2-1.3-1.5c0.3-1.4,1.1-2.7,0.6-4.2c2.8-2.8,1.4-7,3.2-10.1c0.1-0.5,0.2-0.9,0.3-1.4
		c0.7-0.7,0.3-1.5,0.1-2.2c0.7-0.7,0.9-1.5,0.8-2.4c1.8-3.3,3.6-6.7,4-10.5c1-3.8,2.9-7.4,1.7-11.5c0-1.3-0.2-2.3-1.7-0.9
		c-0.7,0.2-1.4,0.3-2.1,0.5c-1.1-0.4-2-0.3-2.9,0.6c-3.1,0.7-6.3,1-8.9,3c-2.2,1.6-4.6,2.3-7.3,1.5c-1.2-0.3-2.6-0.7-3.8,0.4
		c-1.3,1.3-2.6,2.2-4.3,0.8c-1.3-1.1-3.3-2.1-2.7-4.2c0.6-2.2,0.6-5,3.5-5.7c3.6-0.8,6.1-3.4,9.2-5.1c1-0.5,2-1.1,3.1-1.6
		c2.6-0.7,4.3-2.8,6.4-4.3c0.4-0.5,0.8-1,1.1-1.6c0.4-0.4,0.4-0.8,0.1-1.2c1.1-3,1.4-6.3,3.4-9c0.7-1-0.2-1.5-0.7-2.1
		c-0.1-0.2-0.1-0.4-0.2-0.6c0.3-2.5,0.3-5.1,1-7.5c0.5-1.9,0.9-3.4-0.8-4.7c3-1.6,3-4.8,3.9-7.4c0.3-1-0.4-1.6-1.5-0.9
		c-4.3,2.5-8.7,4.9-12.5,8.1c-1.4,1.1-1,2.5-0.9,3.9c-0.1,0.7-2.8,1.2-0.2,2.1c0,2-1.1,3.3-2.7,4.4c-4.8,3.4-9,7.8-13.9,10.8
		c-4.7,2.8-8.3,7.4-13.8,9c-4.8,1.5-11.2-1.9-11.6-7c-0.1-1.6,1-3.3,1.3-5c0.9-5.1,5.2-6,8.9-7.5c1.3-0.5,2.2-1.2,3.1-2.1
		c3.1-3,7.4-3.7,11.2-5.1c5-1.8,9-5.1,13.7-7.4c4.2-2.1,7.9-5,12-7.4c5.2-2.9,9.7-6.4,10.1-13.6c0.3-4.5,0.3-9.2,1-13.7
		c0.9-5.3,2.3-10.5,4.6-15.4c1.1-2.4,3.4-3.6,6-3.7c2.5-0.1,4.5,0.9,5.2,3.5c1.4,4.8,4,9.2,4.6,14.3c0.1,0.9,0.8,1.7,1.2,2.5
		c0,0.1,0.2,0.1,0.3,0.1c-1.2-0.2-0.7,0.7-0.8,1.2c0,0.3,0.2,0.7,0.3,1c0.2,0.6,0.2,1.4-0.4,1.6c-2.9,1.3-3.6,4-4.5,6.6
		c-1.2,3.6-4.3,6.9-2.5,11.2c0.3,0.8,0,1-0.4,1.5c-2.2,3.1-3.4,6.8-5,10.2c-1.3,2.9-1.2,6.1-2.1,9.2c-1,3.4-1.9,4.7-5.3,3.1
		c-1.3,0.2-2.1-1.2-3.3-1.4c-0.6,1.4,0.3,2.2,0.8,3.1c0.5,0.8,1,1.6,0.2,2.2c-4.2,3.2-1.9,8.3-3.6,12.3c-0.7,1.6,0.8,2.3,2,1.9
		c3-0.9,5.4,0.6,8,1.4c0.7,0.6,1.5,1.2,2.2,1.9c0.9,1.7,1.3,3.7,3,5c0.5,1,1,1.9,1.5,2.9c0.1,0.7,0.2,1.5,0.3,2.2
		c-0.1,0.4-0.2,0.8-0.4,1.2c-2.1,0.6-0.7,2.8-1.9,3.8c0.7,1.6,1.3,2.9,0.2,4.9c-1.1,1.8-0.9,4.3-1.3,6.5c-1.2,0.5-2.6,1.7-3.6,1.4
		C436.1,146.4,436.3,148.1,435.7,149.3z M396.5,104.6c-1.8-0.8-2.6,0.9-4.2,1.2C394.5,107.4,395.3,105.3,396.5,104.6z"/>
	<path class="st0" d="M482.2,475.3c-1.3-1.1-2.5-1.8-2.2-4.2c0.3-2.3-1.2-4.8-2.1-7.1c-0.3-0.7-1.4-1.3-0.5-2
		c0.4-0.4,1.5,0.1,2.4,0.2c0.1-0.3,0.3-0.7,0.1-0.9c-2.4-4.2-1-8.4,0.2-12.5c1.3-4.3,4.3-7.3,8.1-9.5c3.4-2,5.4-5.5,7.9-8.4
		c4.4-5,7.5-10.9,11-16.6c0.8-1.3,0.5-2.8,0.9-4.1c0.1-0.2,0.2-0.4,0.4-0.6c1-0.5,1.6-1.7,1.2-2.3c-1.7-2.8,0.5-4.7,1.1-7
		c0.2-0.6,0.3-1.1,0.4-1.7c2.1-2.1,1.3-4.9,1.7-7.4c0.9-4.8,1.3-9.6,3.1-14.2c0.2-0.5,0.2-1.2,0.1-1.8c-1.4-8.3,2.3-16.1,2.6-24.3
		c0.3-8.6,1.2-17.3,1.5-25.9c0.3-10.3,0-20.9-2.1-31.1c-0.9-4.3-0.5-9-3.2-12.8c-0.8-1.2,0.7-2.3,0.7-3.7
		c-0.1-6.8-0.1-13.6-0.1-20.3c0-3.6,0.1-7.3,0.2-10.9c0.1-3.9-0.7-7.3-4.2-9.6c-0.5-0.3-0.9-1.3-0.8-1.9c0.1-1.1,0.9-0.5,1.6-0.4
		c2,0.3,1.2-1.4,1.1-2.1c-1.3-5.4-1.5-10.8-1.8-16.3c-0.3-6.5-1.6-13.1-3.8-19.4c-0.6-1.6-0.9-2.8-0.4-4.3c1.2-3.9-0.3-6.4-3.9-8.4
		c-2.4-1.4-4.5-3.6-4.8-7.1c-0.4-5.1,2-7.5,6.9-5.9c1.9,0.6,3.9,1.4,5.5,2.6c1.9,1.5,2.6,0.4,3.1-1.1c1.8-5.8,4.8-10.9,8-16
		c2.1-3.4,5.3-6.2,5.3-10.8c0-2.3-0.1-3.5-2.7-2.9c-0.6,0.1-1.2,0.1-1.7,0.4c-4.9,2.9-10.5,3.4-15.8,4.9c-1.2,0.3-1.8,1.1-2.4,1.9
		c-0.5,0-1-0.1-1.5-0.1c-2.4-0.3-4.7,0-7.1,0.6c-2.2,0.6-3.8,0-3.9-2.7c0-1.9-1.3-3.4-0.9-5.5c0.4-2,0.4-3.6,3-3.4
		c0.4,0,1.1-0.3,1.2-0.6c1.4-3.7,5.8-5.2,7-9.1c0.1-0.5,0.3-0.9,0.9-1c3.3-0.8,4.6-3.7,6.4-6c0.3-0.3,5.2-3.9,5.6-4.1
		c0.5-0.2,1.3-0.4,1.5-0.8c2.7-5.7,9.1-8.1,12-13.6c0.8-1.4,0.8-2-0.1-2.9c-1.6-1.6-2.8-4.3-5.9-2.9c-0.2,0.1-0.6,0.1-0.7,0
		c-3.9-3.2-9.9-3.3-12.8-8.2c-1.2-2.1-1.3-4.7-3.2-6.5c-0.8-0.8,0.2-1.4,1.2-1.3c0.8,0.1,1.3,0.4,1.8,1c3.9,4,9.5,4.8,14.2,7.5
		c0.7,0.4,1.6,0.4,2.5,0.4c4.2-0.1,7.4,2.2,10.8,4.1c0.7,0.4,1.4,1,1,2c-2,5.3-4.5,10.3-8.3,14.7c-2.4,2.8-6.1,4.8-6.5,9.2
		c-0.1,1-2.1-0.7-3.1,0.8c-2.3,3.5-5.9,5.9-8.6,9c-2.7,3.1-5.9,5.6-8.7,8.6c-0.6,0.6-1.5,0.9-1.1,2c0.3,0.9,1.2,1,2.1,1.1
		c4.7,0.3,9.2-0.4,13.3-2.9c2-1.2,3.8-2.9,6.3-3.3c3.7-0.6,7.5-0.9,10.9,1c2.8,1.5,0.9,4-0.1,5c-1.5,1.4-1,2.3-0.5,3.6
		c0.4,1.2,0.8,2.3-0.3,3.6c-5.1,6-6.8,13.9-10.8,20.5c-1.7,2.8-2.7,6-3.8,9.1c-0.8,2.1,0,3.4,1.6,4.2c5.4,2.6,9.2,7,13.5,10.9
		c2.3,2,2,5.2-0.1,7.4c-0.8,0.8-2,1.5-2.2,2.8c-0.3,1.8-2.3,2.1-3.1,3.2c-1.3,1.8-5-1.6-4.7,2c0.2,2.1,0.1,4.2,0.4,6.3
		c0.6,4.9,0.9,9.8,1.3,14.8c-2.3,0.1-1.5-2.3-2.7-3.2c-0.8-0.6-1.2-2-2.6-1c-1.1,0.8-1.1,1.5-0.5,2.7c0.8,1.5,1,3,0.3,5
		c-0.6,1.8-0.7,4.8,2.8,5c1.7,0.2,3.4,0.5,5.3,1.6c-1.2,0.3-2.3-0.5-3.1,0.1c-1.4-0.5-3.1-1-4,0.1c-0.9,1.2-0.4,2.9,0.6,4.2
		c0.5,0.7,0.9,1.7,0,2.2c-3.3,1.8-0.7,2.1,0.7,2.6c0.2,1.9-0.9,3.9,0.3,5.8c0.1,0.5,0.3,1,0.4,1.4c-1.4,2.1-0.8,4.4-0.8,6.6
		c-0.1,3.1-0.4,6.2-0.6,9.2c-0.1,2.2,0.9,4.8,1.5,7.2c0.1,2-0.5,3.9,0,5.9c1,3.9,1.5,8,2.9,11.8c1.1,2.8-2.7,2.4-2.1,4
		c0.5,1.5,3,2.2,1.4,4.4c-0.3,0.4-1,0.8-0.4,1.5c3.3,3.7,1.8,7.9,1.2,12c-0.2,1.1,0,2.2,0.6,2.6c2,1.7,1.2,3.4,0.5,5.2
		c-0.4,0.9-0.9,1.7-0.5,2.7c1.6,3.8,0,7.7,0.4,11.6c0.4,4.6-1.4,9.2-1.1,14c-1.1,0.5-0.9,1.3-0.6,2.1c0,0.7,0.1,1.5,0.1,2.2
		c-0.8,1.4-0.6,2.8-0.5,4.3c-0.6,1.4-0.6,2.9-0.4,4.3c-1.5,2.3-1.2,4.7-0.9,7.2c-1,1.1-0.8,2.3-0.6,3.6c-0.3,2.7-1.9,5.1-1.6,7.9
		c0.1,0.7,0.2,1.5,0.3,2.2c-0.9,2.3-2,4.6-1.7,7.2c-1.5,6.2-3,12.4-4.6,18.6c-1.7,3.3-4.1,6.2-5.1,9.9l0,0c-1.3-0.3-1.8,0.8-2.1,1.5
		c-2.6,5.4-6.7,9.6-10.5,14.1c-2.1,2.5-5,4.1-6.6,7.3c-1.3,2.5-2.4,4.7-3.2,7.5c-1.1,4-0.8,8.4-2.8,12.4
		C484,470,484.3,473.2,482.2,475.3z M528.8,194.8c-2-2-3.8-3-4.6-4.9c-0.3-0.6-0.9-0.9-1.5-0.6c-0.7,0.3-0.3,1-0.2,1.5
		C523.2,193.7,525,194.9,528.8,194.8z M523.1,198.6c-0.8,1.2-1.7,2.2-0.9,3.7c0.2,0.4,0.7,0.5,1.2,0.2
		C525.1,201.1,523,199.9,523.1,198.6z M530.4,199.9c0.7-0.3,1.7-0.1,1.7-1.2c0-0.7-0.5-1.4-1.3-1.2c-0.7,0.2-1.8-0.2-1.9,1
		C528.6,199.5,529.5,199.7,530.4,199.9z"/>
	<path class="st0" d="M434.6,222.1c0.5-1.4,0.1-3,1.7-4c1-0.6,0.8-1.9,0.5-3c-0.7-3.2,1.6-5,3.1-7.2c-0.1,1.1,1.7,1.7,0.9,2.8
		c-3.2,4.4-0.8,9.6-2.2,14.2c-0.3,1,0.7,0.9,1.4,0.6c0.3,0.3,0.6,0.7,0.9,1c0.3,0.4,0.7,0.9,1,1.3c0.1,1.4,0.2,2.8,0.2,4.2
		c0.3,2.1,1.6,5.2,0.7,6.2c-2.6,2.8,0.4,2.5,1.3,3.4c0.2,1.5-0.8,3.6,0.7,4.2c2.1,0.8,2.8-1.6,3.7-3c0.7-0.6,1.5-1.2,1.5-2.2
		c0.8-1.7,1.6-3.3,2.3-5c1.4-2.2,2.5-4.6,2.4-7.3c0.2-1,1.4-1.6,1.2-2.8c0.7-0.3,1.2-0.7,1.4-1.5c1.3-1.7,2.9-3.4,0.7-5.5
		c0,0-0.1,0-0.1,0c3.3-1.8,2.7-5.1,3.4-8c0.2-0.9,0.1-1.9,0.2-2.8c0.7-0.1,1.5,0,1.5-1c0-0.9-0.6-1.5-1.5-1.7
		c2.9-4.7,4.4-9.9,4.9-15.4c0.1-1-0.8-3.1,1.4-3c1.9,0,2.7,1.5,2.7,3.4c-0.1,3.7-0.8,7.3-1.3,11c-0.5,3.6-1.9,7-1.1,10.8
		c0.2,1.1-0.6,2.5-0.9,3.7c-2.5,9.5-6,18.6-11,27c-3,5.1-6.1,10.3-12.1,12.5c-0.8-1.7-1.8-3-3.5-3.8c-0.6-0.3-0.8-1.7-1.8-1.2
		c-0.8,0.4-0.3,1.6-0.6,2.3c-0.6,1.6,0.8,3.4-0.6,4.8c-1.9-0.7-3.8-1.4-5.8-2.1c-0.6-3.6-2.1-7.6-1.7-10.6
		c0.6-4.7-1.5-10.5,3.3-14.4c0.2-0.2,0.4-0.8,0.3-1C432.7,226.7,434.5,224.5,434.6,222.1z"/>
	<path class="st0" d="M512.2,40.3c-4.1,2.5-3.4,7.3-5.3,11.5c-2-3.1,0.1-5.2,1-7c0.8-1.7,1.5-3.2,1-5c-0.3-1.1-0.5-2.1,1.2-2.2
		c0.6,0,1.3-0.8,0.9-1.3c-2.2-3.1,0.6-3.4,2.3-4.4c0.5-0.3,0.9-0.9,1-1.4c0.4-4.7,3.4-8.3,5.7-12.1c0.9-1.5-0.6-2.6,0-4
		c1.8-4.1,3.8-8.2,6.4-11.9c2-2.9,4.4-2,7-0.9c2.6,1.1,3.3,3,2.3,5.5c-0.2,0.7-0.9,1.5-0.2,2c4.3,2.7,1,6.7,1.6,10
		c0.3,1.7-1.8,2.6-3.2,2.7c-3.5,0.1-4.4,1.3-4.3,5.1c0.1,3.6-2.2,6.7-2.9,10.2c-1.1,5.9-4.7,10.7-6.8,16.1c-1,2.6-2.3,5.3-3.4,7.9
		c-1.8,4.6-3.2,9.5-4.7,14.2c-0.1,0.2-0.2,0.5-0.1,0.6c1.3,2.2,1.7,3.4-1.9,3.7c-3.6,0.4-4.9-3.1-4.4-3.8c1.8-2.2,1.3-4.7,1.8-6.9
		c1-4.6,3.8-8.3,5.1-12.6c1-3.5,3.3-6.7,3.1-10.5c0.8-1,1.7-1.9,2.6-2.8c3.5-3.7,2.2-9.1,4.8-13.2c2.1-3.3,2.6-7.7,3.9-11.5
		c0.4-1.2,0.4-2.3,0.5-3.5c0.1-1-0.5-1.7-1.3-2c-1.4-0.6-1.1,0.9-1.4,1.5c-2.6,4.8-5.6,9.5-7.6,14.5C515.4,32.5,512.9,36,512.2,40.3
		z"/>
	<path class="st0" d="M297.5,207c-1.9-3-1.2-6.5-1.5-9.7c-0.4-3.7-2.5-7.2-1.6-11c0.4-1.7-1.3-2.8-2-3c-3.9-1.1-2.2-4-1.7-5.8
		c0.5-1.6,0.4-2.2-0.7-3.1c-1.5-1.1-1.7-3.1-0.6-4c4.4-3.6,2.9-8.2,1.8-12.2c-0.7-2.5,2.9-2.9,1.2-5.1c-1.1-1.4-2.8-2.9-1.3-5
		c0.6-0.9,0-1.3-0.5-1.8c-1.1-1.2-1.6,0.3-2.3,0.6c-0.2-0.8-0.5-1.6-0.8-2.3c-1.5-3.7-1-4.5,3.1-4.5c-0.1,0.9-1.3,2.3,0.6,2.3
		c1.5,0,3.6,0.1,3.4-2.4c-0.1-1.7-0.5-3.2,0.5-5.1c2.3-4.4,1.9-4.8-3.2-4.9c-1.7-1.4-1.2-3.3-0.6-4.8c0.6-1.6,2-0.3,3.1-0.3
		c1,0.7,0.6,3.1,2.5,2.4c1.3-0.5,1.5-1.8,1.3-3.3c-0.2-1.5,0.5-3.3,1-4.5c2.2-5.1,2.5-5.3,1.8-11.5c-0.1-0.9,0.3-1.4,0.9-1.8
		c2.2-1.4,2.6-3.5,2.1-5.8c-0.3-1.2,0.6-2,1-2.9c2.5-0.7,4.4-2.7,7.2-3.3c0,1.5-1.1,2.4-1.6,3.5c-0.6,1.3-1,2.4-0.1,3.7
		c1.8,2.5,0.6,5.2,0.2,7.8c-0.4,2.6-1.4,3.9-3.6,1.2c-1.3,4.3-2.4,8.4-3.6,12.4c-0.9,3-1,4.7,0.1,7.5c0.7,1.8,1.9,5.9-3.3,6
		c-1.4,0-2,3.1-0.8,4.9c1.9,2.9,2.6,4.9-1.7,6.3c-2,0.6-1.6,3.3-0.3,4.4c1.2,1.1,1.4,2.1,1.4,3.4c0,4.9-0.8,9.9,0,14.8
		c0.1,0.3,0.1,0.8,0,1.1c-3.6,5.7,0.4,11.5,0,17.3c-0.1,1.9-0.8,5.9,2.6,7.8c-1.4,1.6-5.2,2.5-1.5,5.7
		C301.2,203.1,298.8,205.5,297.5,207z"/>
	<path class="st0" d="M305.1,97.5c-0.5,0.9-1.3,1.7-1,2.9c0.6,2.4,0.1,4.4-2.1,5.8c-0.6,0.4-1,0.9-0.9,1.8c0.7,6.2,0.4,6.3-1.8,11.5
		c-0.5,1.2-1.1,3-1,4.5c0.2,1.5,0,2.8-1.3,3.3c-1.9,0.6-1.5-1.7-2.5-2.4c0.9-4.4,1.8-8.7,2.6-13.1c0.7-3.7,1-7.6,2.6-11.1
		c1-2.2-0.5-5.2,2.7-6.7C303.7,94.7,303.1,97.2,305.1,97.5z"/>
	<path class="st0" d="M307.2,85.3c2.2-3-1.8-5.1-1.2-8c0.3-1.3,0.4-2.5,1.3-3.6c3.1-1.7,5.2-0.8,7,2.8c0.5,1,0.9,2.1,0.2,3.1
		c-0.9,1.3-1.6-0.2-2.3-0.4c-1.3-0.2-2.1,0.8-3.1,2c2,0.1,4.6-0.3,2.5,2.8c-0.3,0.4,0.3,1.3,0.5,2c0.3,0.8,2.2,1.7,0.5,2.4
		c-0.9,0.4-2.7-0.1-2.8-1.9C309.6,84.7,308.4,84.9,307.2,85.3z"/>
	<path class="st0" d="M292,130c5.1,0.1,5.5,0.5,3.2,4.9c-1,1.8-0.7,3.3-0.5,5.1c0.2,2.6-1.9,2.5-3.4,2.4c-2,0-0.7-1.5-0.6-2.3
		c1-1.1-0.2-1.6-0.6-2.3c0-0.7,0.1-1.5,0.1-2.2C290.8,133.8,293.5,132.6,292,130z"/>
	<path class="st0" d="M962.6,158.1L962.6,158.1c-0.5-0.1-0.9-0.2-1.4-0.2c-1.5,0.1-2.8-0.1-3.5-1.7c1.8-0.4,0.4-3.8,3.3-3.5
		c1,0.1,2.1-1.2,3.2-1.9c0.2-0.9,1-0.4,1.5-0.6c0.5-2-1.2-1.6-2.2-1.9c-4.8,1.4-8.8,4.4-14,5.3c-3.5,0.6-7.1,0.6-10.6,1.1
		c-5.2,0.8-10.6,0.3-15.6-0.9c-4.1-1-8.4-1.8-12.5-2.2c-10.4-1-20.9-2.1-31.3-3.5c-4.1-0.6-8.1-1.7-12.2-2
		c-9.9-0.8-20.1,0.4-29.6-4.1c-5.2-2.4-10.8-3.7-16.4-4.4c-3.4-0.4-6.2-2.8-9.8-2.2c-1.6,0.3-2.8,1.3-4.6,1.2
		c-5.8-0.2-11.5-0.9-17.2-1.9c-6.4-1.1-12.9-0.3-19.3-0.7c-3-0.2-5.9-0.6-9,0.8c-2,0.9-4.6,2-7.1,0.7c-3.4-1.8-5.2-1.3-6.9,1.9
		c-2.3,4.2-6.4,5.1-10.4,6.4c-3.6,1.1-7.2-0.3-10.9,0.2c-4.4,0.6-8.4,2.7-12.8,3.2c-0.5,0.1-1.1,1-1.4,0.1c-1.3-3.5-5.3-5.8-5-9.8
		c0.2-2.6,0-4.9-0.4-7.4c-0.5-3-0.2-5.6,2.1-8.2c2.9-3.1,3.9-7,3.3-11.6c-0.7-5.1-7.3-12.1-12.5-12.7c-8.7-0.9-16.2,2.5-22.9,7.1
		c-7.1,4.9-14.1,10.1-20.2,16.4l-0.2,0.1l-0.2-0.1c-1.2,2.8-4.2,4.3-5.4,7.2c-1.4,0.1-1-0.7-0.7-1.5c-0.3-1-0.1-1.9,0.3-2.9
		c-1.3-2,0.1-4.3-0.6-6.3c-0.6-2.5-0.8-5.3-2-7.4c-3.8-6.6-3.1-14.3-5.2-21.3c-1-3.4,0.3-7.1-0.4-10.2c-1.6-7.1,0.9-13,3.6-19
		c1.7-3.7,0.7-6.8-2.9-7.8c-3.9-1.2-5.2,0.7-6.6,4.1c-1.9,4.8-5.5,8.9-5,14.5c0,0.5-0.5,1-0.8,1.5c0.4,1.4-0.8,2.4-1,3.6
		c1.4,0.6,1.2,1.8,1.1,3.1c-0.2,1.8-0.7,3.6-0.3,5.3c1.1,5.3,2.3,10.6-0.7,15.7c-0.2,0.3,0.1,0.9,0.3,1.3c2.1,4.8-0.2,9.9,1.3,14.9
		c1.1,3.8,0.2,8.1,0.7,12.2c0.6,4.6,2.4,9,2.5,13.7c0,2.8,0.5,5.8-0.3,8.3c-1.1,3.4-3.4,6.5-5.1,9.7c-1.5,2.9-2.9,6.1-3.6,9.1
		c-1,4.2,0.2,8.9-0.2,13.4c-0.1,0.6,0.3,1.1,0.9,1.4c5,2.4,10.2,3.4,15.4,0.7c1.8-1,2.1-0.5,2.6,1.1c0.2,0.8,0.5,1.5,0.6,2.4
		c0.4,5.2,2.8,7.4,7.7,9.6c1.7,0.8,4.1,0.5,5.4,2.6c1.7,2.7,4.7,1.3,6.3-1.1c1.2-1.8,2.3-3.5,3.5-5.3c-0.4-2.5-0.8-4.9,1.6-6.7
		c0.3-0.2,0.6-0.6,0.5-0.9c-1-6.9,3.1-13.5,1.3-20.5c-0.4-0.9-1.9-1.5-0.9-2.9c1.6-3.9,1.5-8.1,1.7-12.2c-0.9-1.8-1.8-3.6-2.7-5.4
		c-0.4-0.8-0.8-1.4-1.9-1.3c-3,0.1-3.3-1.5-2.3-3.7c-0.8-0.9-1.4-0.3-2,0.1c-0.9,0.7-1.8,1.5-2.8,0.4c-0.8-0.9-0.3-2.4,0.4-2.9
		c3-2,5-5.1,7.1-7.7c2.8-3.5,7.2-4.3,9.9-7.6c0.3,0,0.7,0,1-0.2c4.7-2.7,9.3-3.7,13.9,0.2c0.4,0.3,1.2,0,1.7,0.2
		c1,0.3,2.4,0,2.8,1.2c0.4,1.3-1.4,1.3-1.6,1.8c-0.9,2.2-0.7,4.7-0.4,7c0.3,1.9,1.4,3.8,0.3,5.8c0,0.5,0,1,0,1.6
		c0.5,1.3,1,2.7,1.6,4c1.1,2.4,2.2,4.9,3.2,7.3c0.2,0.2,0.4,0.5,0.6,0.7c0.5,0.1,1,0.2,1.5,0.3c0.2,0.1,0.4,0.2,0.6,0.3
		c0.9,0.6,1.6,1.3,1.8,2.4c1.2,2.1-0.7,2.6-1.8,3.6c-0.9,1-1.8,2-2.7,2.9c-1.5,2.2-3.5,3.7-5.7,5.1c-0.3,2.1-1.4,3.7-2.7,5.3
		c-5.1,6.4-8.7,13.5-11.3,21.2c0.3,1.7,0,3.5,1.1,5c0,0,0,0,0,0c2.9,0.3,1.7,4.1,4.2,4.8c0.5,0.2,1,0.3,1.4,0.5c1,0,1.4,0.5,1.1,1.5
		c0,0,0.1,0.1,0.1,0.1c0.5-1,1.3-0.6,2.1-0.7c2.3-0.3,4.2,1.8,6.6,1c2.1-1.4,4.1-0.8,6.2,0.1c0.3-0.9,0.4-1.9,1.9-1.3
		c1.4,0.6,2.8,1.1,4.2,1.6c2.7-2.3,6.3-2.9,9.2-4.9c0.7-0.6,1.5-1.2,2.2-1.8c0.6-1.2,1.3-2.4,3-2.4c2.2,0,2.3-2.8,4.1-3.4
		c0.1-0.8-0.5-1.6,0.5-2.2c3.9-2.3,3.2-6.9,5-10.3c0.7-1.3-0.6-2.3-1.6-2.2c-2.1,0.1-1.6-0.9-1.3-2.1c0.4-1.8,1.9-3.2,1.7-5.3
		c-0.3-2.6,1.2-3.3,3.5-3c-0.4-0.2-0.8-0.7-1.2-0.6c-2.1,0.4-3-0.7-3.1-2.4c-0.1-1.9,1.7-2.7,3-2.8c7.4-0.4,14.4-2.9,21.7-3.6
		c2.3-0.2,4.5-1.2,6.9-1.3c1.8,0,2.1-1.1,1-2.7c-0.9-1.4-2.5-1-3.9-1.5c1.2-1.6,2.4-1.1,3.4-0.6c2.7,1.5,5.9,2.1,8.3,4.2
		c1.1,1,1.5,0.6,1.8-0.7c0.6-2.2,1-2.3,2.7-0.9c2.1,1.7,4.3,2.8,6.9,3c1.9,0.1,2.1,1.3,1.3,2.8c0.5,0.5,0.9,1.8,1.4,1.3
		c2.4-2.3,5.4-1,8.1-1.6c5.2-1.2,9.5-4.5,14.6-5.6c3.2-0.7,6.5-2.7,9.6,0.8c1,1.2,3.2,1.6,4.5,2.4c2.9,1.8,6.4,1.3,9.4,3.2
		c2.7,1.7,5.8,3.8,9.4,4c3,0.2,4.2-1.2,3.1-3.7c-0.3-0.6-1.1-1.2-0.6-1.9c0.6-0.8,1.5,0,2.2,0c2.5,0.1,4.8,0.9,7.3,1
		c4.6,0,9.4-0.4,13.8,1.3c4.1,1.6,8.4,1.4,12.6,1.9c7.7,0.9,15.4,0.9,23.1,1.1c7.9,0.2,15.7,0.3,23.6,1.9c6.6,1.3,14.1,2.9,20-3.2
		c0.4-0.5,1.7,0,2.4-0.3c2.5-0.9,5.8,0.1,7.7-2.2c1.3-1.6,2.2-1.5,3.8-0.8c2.3,1,4.6,1.3,5.6-1.9C964.7,158.2,963.5,159,962.6,158.1
		z M645.7,108.4c-0.1,0.6-0.4,1.1-1.1,1.1c-0.8,0-0.9-0.6-0.9-1.2c-0.1-0.8,0.5-0.9,1-1C645.4,107.4,645.8,107.6,645.7,108.4z
		 M653,162.3l-0.2,0.1l-0.2-0.1c-2.6-0.4-3.2,3.2-5.8,2.8c-1.3-2,0.1-4.3-0.6-6.3c1.4-0.7,2.3-3.1,4.1-1.9
		C652,158.1,653.5,159.9,653,162.3z M675.4,122.4c-0.8-0.2-2,1-2.3-0.6c-0.1-0.9,0.7-1.6,1.5-1.8c1.3-0.4,1.5,0.7,1.7,1.7
		c0.1,0.4,0,0.8,0.4,0.9C676.2,122.5,675.8,122.5,675.4,122.4z M698.7,118.6c-0.3,1.1-1,1.2-1.9,0.6c-5.7-3.6-11.8-3-18.9-0.8
		c2.9-3.2,5.3-5.1,8.8-6.3c2.2-0.8,4.2-1.5,6.5-1.5c1.5,0,3-1.6,4.8,0.6C700.1,113.7,699.4,116,698.7,118.6z M715,200.2
		c-2.5,0.8-4.3,5-8,1c2.8-0.4,5-1.5,7-2.8c0.5-0.3,1.5-0.7,1.9,0.2C716.3,199.3,715.7,200,715,200.2z M717.7,176.2
		c-0.6,0.2-1.2,0.6-1.1,1.3c0.9,5.8-3.6,9.4-7.1,11.6c-3.6,2.2-8.1,5.6-13.4,3c-1-0.5-1.5-0.9-0.9-1.6c1.5-1.7,1.4-4.7,4.2-5.4
		c0.8-0.2,1.2-0.9,1-1.7c-0.1-0.2-0.9-0.5-1.2-0.4c-2,0.9-3.9-1.3-3.8-1.6c0.7-1.7,1.4-4.1,4.2-3.4c0.2-0.3,0.5-0.7,0.7-1
		c0.8-2,1.4-4.2,3.9-4.8c3.2-2.2,7-3.3,10.4-4.9c1.3-0.6,2.8-0.8,3.5,0.6c0.7,1.3,1.9,2.9,0.2,4.5
		C719.4,173.9,720.3,175.4,717.7,176.2z M729,180.4c-0.3-0.1-0.5-0.3-0.8-0.4c0.2-0.2,0.3-0.3,0.5-0.5c0.3-0.2,0.4-0.1,0.5,0.2
		C729.1,180,729.1,180.2,729,180.4z"/>
	<path class="st0" d="M310.1,68.6c-0.2-1.2-0.1-2.5-0.7-3.5c-1.7-2.8-0.2-4,2-5c1.6,0.8,2.8,1.7,2,3.8c-0.4,1,0,2,0.8,2.9
		c0.7,0.7,1.7,1.7,0.8,2.8c-0.7,0.9-1.7-0.2-2.6-0.3C311.6,69.1,310.9,68.8,310.1,68.6z"/>
	<path class="st0" d="M965.6,158.6c-1-0.4-2.1,0.5-3.1-0.4c0.1-0.1,0.1-0.2,0.2-0.3c-0.1,0.1-0.1,0.2-0.2,0.3
		c-0.5-0.1-0.9-0.2-1.4-0.2c-1.5,0.1-2.8-0.1-3.5-1.7c1.8-0.4,0.4-3.8,3.3-3.5c1,0.1,2.1-1.2,3.2-1.9
		C962.6,153.8,966.2,155.8,965.6,158.6z"/>
	<path class="st0" d="M269.8,83c1.9-3.3,2.4-7.5,5.7-10c1.5,1.5,3.6,2.9,0,4.5c-1.3,0.6-2.2,2-2.3,3.3
		C272.9,83.2,271.6,83.3,269.8,83z"/>
	<path class="st0" d="M304,219.8c-1.6,0.1-2.3-1.7-2.3-2.2c0-3.5-2.7-6.3-2.5-9.8c2.3,0.8,3.6,1.9,3.4,4.8
		C302.4,215,304.6,217.2,304,219.8z"/>
	<path class="st0" d="M141,94c-4.2-0.4,0-2.4-0.7-3.5c1-0.2,1.9-1.7,2.8-0.5c0.9,1-0.2,1.9-1,2.7C141.8,93.1,141.4,93.6,141,94z"/>
	<path class="st0" d="M234,128.5c-0.5,1.7-1.1,3.4-0.2,5.1c0.8,1.5-0.2,2.5-0.8,3.6C230.3,134.7,230.8,129.8,234,128.5z"/>
	<path class="st0" d="M276.4,70.8c1.2-1.3-0.9-3.2,0.8-4.4c1.4,1.7,4.2-1.1,5.2,1.9C280.6,69.1,279.2,71.5,276.4,70.8z"/>
	<path class="st0" d="M519.6,418.2c-0.2-1.3-1.2-2-1.7-3c-0.7-1.3-0.7-2.8,0.5-3.9c1.3-1.3,1.9,0.6,2.9,0.8
		C521.7,414.4,521.1,416.4,519.6,418.2z"/>
	<path class="st0" d="M237.6,109.7c-0.9,2.1,0,4.8-2.2,6.5c-0.7-0.8-2.8-1.1-2.3-1.5C235.2,113.4,233.7,109.1,237.6,109.7z"/>
	<path class="st0" d="M522.9,401.4c-0.5-1.3-2.4-0.1-3-1.8c1.7-0.6,3.3-1.4,4.7-2.5c0.1,1,0.3,2,0.3,3.1
		C524.9,401.4,524.4,402.2,522.9,401.4z"/>
	<path class="st0" d="M530.2,298.4c-0.5,0.7-1,1.1-1.5,0.1c-1.1-2.1-1.3-4.3,0.5-6.2C529.5,294.3,529.8,296.3,530.2,298.4z"/>
	<path class="st0" d="M527.6,268c-0.5,1.5,1.4,3.5-0.8,4.4c-0.9,0.4-1.2-1-1.5-1.7C524.7,268.7,526.3,268.5,527.6,268z"/>
	<path class="st0" d="M454.9,228.5c0.1,2.7-1,5.1-2.4,7.3C451.2,232.7,451.9,230.2,454.9,228.5z"/>
	<path class="st0" d="M965.6,150.2c0.5-2-1.2-1.6-2.2-1.9c2.1-2.7,2.1-2.7,4.8,2.6C967.2,151,966.3,150.9,965.6,150.2z"/>
	<path class="st0" d="M466,171.7c1.1-0.1,2.2-0.2,3.1,0.7c-0.3,1.3-0.2,3.5-1.9,3.2C465.6,175.3,465.8,173.2,466,171.7z"/>
	<path class="st0" d="M526.8,248.8c-0.7,0.8-1.4,1.7-2.6,0.6c0.2-1.5-1.3-3.6,1.4-4.3C525.9,246.4,527.2,247.4,526.8,248.8z"/>
	<path class="st0" d="M278,65.1c0.6-1.7,0.5-3.8,3-3.9C281,63.3,281.1,65.4,278,65.1z"/>
	<path class="st0" d="M500.2,63.2c0.7,2.2-0.9,3.3-1.1,4.8C498.1,66.2,498.6,64.7,500.2,63.2z"/>
	<path class="st0" d="M235.6,122c0.1,1.6-0.4,3.1-1.4,4.4C233.7,124.6,232.5,122.6,235.6,122z"/>
	<path class="st0" d="M524.6,368.2c-0.1-1.5-0.1-2.9,0.4-4.3C525.9,365.4,526.5,367,524.6,368.2z"/>
	<path class="st0" d="M278.7,289c0.4,0.6,0.7,1.2,1.1,1.7c-0.5,0.8-1.2,1.5-1.9,0.6C277,290.4,277.2,289.4,278.7,289z"/>
	<path class="st0" d="M443.1,134.2c1.2-1-0.2-3.2,1.9-3.8C445.1,132,445.5,133.8,443.1,134.2z"/>
	<path class="st0" d="M421.8,177.4c0.5,0.7,0.5,1.5,0.1,2.3c-0.8-0.1-1.8-0.1-1.7-1.3C420.2,177.4,421.1,177.5,421.8,177.4z"/>
	<path class="st0" d="M425.8,155.8c0.2,0.7,0.6,1.5-0.1,2.2c-0.7-0.1-1.4-0.2-1.4-1.1C424.4,155.9,425.1,155.9,425.8,155.8z"/>
	<path class="st0" d="M309,270.8c-1,0.5-1.9,1.4-3.3,0.5c0.9-0.9,2-1.6,3.2-1.9C309,269.9,309,270.3,309,270.8z"/>
	<path class="st0" d="M290.1,135.7c0,0.7-0.1,1.5-0.1,2.2c-0.6-0.1-1.6,0.1-1.5-0.9C288.5,136,289.3,135.8,290.1,135.7z"/>
	<path class="st0" d="M237.9,102.2c1.3,0.9,1.5,1.9,0.5,3.2C237.4,104.5,237.8,103.3,237.9,102.2z"/>
	<path class="st0" d="M287.5,155.8c3.3,1.6,0.1,2.2-0.5,3.2C286.7,157.9,286.4,156.7,287.5,155.8z"/>
	<path class="st0" d="M413.4,95.4c-2.6-1,0.1-1.4,0.2-2.1C414.3,94,414.3,94.7,413.4,95.4z"/>
	<path class="st0" d="M461.7,205.2c0.9,0.2,1.5,0.8,1.5,1.7c0,1-0.8,0.9-1.5,1C461.7,207,461.7,206.1,461.7,205.2z"/>
	<path class="st0" d="M281.9,60.9c0.4-0.7-0.2-2,1.3-2.1C283.1,59.7,283.1,60.7,281.9,60.9z"/>
	<path class="st0" d="M433.4,196.2c-0.5-0.5-1.3-1.1,0.1-1.5c0.4,0.2,1.1,0.4,1.1,0.6C434.7,196.1,433.9,196.1,433.4,196.2z"/>
	<path class="st0" d="M445.4,129.2c-0.1-0.7-0.2-1.5-0.3-2.2C446.9,127.5,447,128.3,445.4,129.2z"/>
	<path class="st0" d="M432.6,265.3c-0.2-0.5-0.2-1,0.3-1.5c0.5,0.1,1.3,0.1,1.1,0.9C433.9,265.3,433.1,265.2,432.6,265.3z"/>
	<path class="st0" d="M432.5,268.9c-0.6-0.7-0.6-1.4-0.1-2.2C434,267.3,434.1,268,432.5,268.9z"/>
	<path class="st0" d="M525.5,359.6c0-0.7-0.1-1.5-0.1-2.2C526.8,358,526.9,358.8,525.5,359.6z"/>
	<path class="st0" d="M235.5,117.7c1.1,0.7,0.9,1.4,0.1,2.2C234.7,119.2,234.7,118.5,235.5,117.7z"/>
	<path class="st0" d="M450.2,240.8c-0.1,1-0.8,1.6-1.5,2.2C448.7,241.9,448.7,240.8,450.2,240.8z"/>
	<path class="st0" d="M457.6,224.3c-0.2,0.7-0.7,1.2-1.4,1.5c-0.4-0.3-0.9-0.6-0.5-1.1C456.1,224,456.9,224.3,457.6,224.3z"/>
	<path class="st0" d="M459.5,147.1c-0.5-0.1-1-0.1-1.5-0.2c0.1-0.4,0.3-1,0.8-0.8C459.1,146.2,459.3,146.7,459.5,147.1z"/>
	<path class="st0" d="M430.6,130.4c1.5-1.4,1.6-0.3,1.7,0.9C431.6,131.3,430.9,131.1,430.6,130.4z"/>
	<path class="st0" d="M442,227.9c-0.3-0.4-0.7-0.9-1-1.3c0.5-0.1,1.1-0.2,1.5,0.3C442.8,227.4,442.4,227.6,442,227.9z"/>
	<path class="st0" d="M523,256.6c-0.1-0.5-0.3-1-0.4-1.4C523.4,255.4,523.7,255.9,523,256.6z"/>
	<path class="st0" d="M442.9,154.4c-0.2,0.3-0.3,0.5-0.5,0.8c-0.4-0.2-0.9-0.5-0.6-1C442.3,153.6,442.7,154,442.9,154.4z"/>
	<path class="st0" d="M420.8,184c-0.1,0.5-0.1,0.9-0.2,1.4c-0.3-0.2-1-0.4-1-0.6C419.5,183.9,420.2,184,420.8,184z"/>
	<path class="st0" d="M458.2,218.8C458.2,218.8,458.2,218.8,458.2,218.8c0,0.6,0,1.2-0.6,1.4c-0.1,0-0.3-0.2-0.4-0.3
		C457.5,219.5,457.8,219.1,458.2,218.8z"/>
	<path class="st0" d="M415.3,96.3c-0.1,0-0.2-0.1-0.2-0.1c0-0.1,0-0.2,0.1-0.3c0,0,0.2,0,0.2,0.1C415.4,96.1,415.3,96.2,415.3,96.3z
		"/>
	<path class="st0" d="M494.5,83.3c-0.1,0-0.2-0.1-0.3-0.1c0-0.1,0-0.2,0.1-0.3c0,0,0.2,0,0.3,0.1C494.5,83.1,494.5,83.2,494.5,83.3z
		"/>
	<polygon class="st0" points="501.3,61.9 501.1,61.9 501.3,62 	"/>
	<path class="st0" d="M531.5,302.7c0.1,0.1,0.2,0.1,0.3,0.2C531.7,302.8,531.6,302.8,531.5,302.7
		C531.5,302.7,531.5,302.7,531.5,302.7z"/>
	<path class="st0" d="M85.8,271c0-0.1,0-0.2-0.1-0.3c0-0.1-0.2-0.1-0.2-0.1C85.5,270.7,85.6,270.9,85.8,271
		C85.7,271,85.7,271,85.8,271z"/>
	<path class="st0" d="M644.7,107.3c0.7,0.1,1.2,0.3,1,1.1c-0.1,0.6-0.4,1.1-1.1,1.1c-0.8,0-0.9-0.6-0.9-1.2
		C643.6,107.5,644.1,107.4,644.7,107.3z"/>
	<path class="st0" d="M729.2,179.8c-0.1,0.2-0.1,0.4-0.2,0.6c-0.3-0.1-0.5-0.3-0.8-0.4c0.2-0.2,0.3-0.3,0.5-0.5
		C729,179.4,729.1,179.5,729.2,179.8z"/>
	<path class="st0" d="M649.5,127c0.6,0.3,0.7,0.9,0.7,1.5C648.9,128.6,649.2,127.8,649.5,127z"/>
	<path class="st0" d="M98.6,227c1.3,1.8,3.2,2.7,0.4,4.5c-1.2,0.8-1.3,2.7-1.2,4.2c0,1.1-0.2,1.9-1.3,2.1c-0.5,0.1-1.3-0.2-1.6-0.5
		c-0.9-1,0.5-1.3,0.7-2C96.6,232.7,97.5,230.1,98.6,227z"/>
	<path class="st0" d="M438.5,117.3c0.2-0.9,0.4-2.1,1.7-1.2c1.1,0.7,2,1.7,0.5,3C439.9,118.5,439.2,117.9,438.5,117.3z"/>
	<path class="st0" d="M528.8,194.8c-3.8,0.2-5.7-1-6.3-4c-0.1-0.6-0.5-1.2,0.2-1.5c0.6-0.3,1.2,0,1.5,0.6
		C525,191.8,526.8,192.8,528.8,194.8z"/>
	<path class="st0" d="M523.1,198.6c-0.1,1.3,2,2.5,0.3,3.9c-0.5,0.4-1,0.3-1.2-0.2C521.4,200.9,522.3,199.8,523.1,198.6z"/>
	<path class="st0" d="M530.4,199.9c-0.9-0.2-1.7-0.4-1.6-1.5c0.1-1.2,1.3-0.8,1.9-1c0.9-0.2,1.3,0.4,1.3,1.2
		C532.1,199.8,531,199.6,530.4,199.9z"/>
	<path class="st0" d="M271.5,174.6c0,2.6-2,3.8-3.1,5.5C269,178.1,268.8,175.8,271.5,174.6z"/>
	<path class="st0" d="M528.2,321.3c-0.1-0.1-0.2-0.3-0.3-0.4c0.2,0,0.4-0.1,0.6-0.1c0.1,0,0.2,0.1,0.2,0.2
		C528.5,321.1,528.4,321.2,528.2,321.3z"/>
	<path class="st0" d="M471.4,167.8c0,0.1,0.1,0.2,0.1,0.3c0,0.1-0.1,0.1-0.2,0.2C471.4,168.2,471.4,168,471.4,167.8z"/>
	<path class="st0" d="M962.6,158.1c0.1-0.1,0.1-0.2,0.2-0.3C962.7,157.9,962.6,158,962.6,158.1C962.6,158.1,962.6,158.1,962.6,158.1
		z"/>
	<path class="st0" d="M700.3,177.1c0.2,0.3,0.5,0.7,0.5,0.8c-0.3,0.5-0.8,0.4-1.2,0.2C699.8,177.7,700.1,177.4,700.3,177.1z"/>
	<path class="st0" d="M56,133.6c-0.7,0.6-1.2,0.4-1.5,0.1c-1.3-1.2-3.4,1-4.3-0.9c-0.5-0.9,3.7-6.9,5.2-7.6
		C55.1,128.2,54.9,131,56,133.6z"/>
	<path class="st0" d="M84.8,76.7c0.9-0.4,1.1,0.5,1.5,0.7c0.7,0.5,2.5,0.3,2.2,1.3c-0.4,1.5-1.3,3.3-2.5,4c-1.3,0.8-2.5-0.4-2.3-2.1
		C83.9,79.3,84.4,77.9,84.8,76.7z"/>
	<path class="st0" d="M61.8,110.7c0.4,2.2,1.8,4.3-0.9,5.6c-0.5,0.2-1.1,0.4-1.2-0.2C59.1,113.9,60.6,112.5,61.8,110.7z"/>
</g>
</svg>
