<?xml version="1.0" standalone="no"?><!DOCTYPE svg PUBLIC "-//W3C//DTD SVG 1.1//EN" "http://www.w3.org/Graphics/SVG/1.1/DTD/svg11.dtd"><svg class="icon" width="200px" height="200.00px" viewBox="0 0 1024 1024" version="1.1" xmlns="http://www.w3.org/2000/svg"><path d="M56.889 512c0 251.364 203.747 455.111 455.111 455.111S967.111 763.364 967.111 512 763.364 56.889 512 56.889 56.889 260.636 56.889 512z m56.889 0c0-219.932 178.29-398.222 398.222-398.222S910.222 292.068 910.222 512 731.932 910.222 512 910.222 113.778 731.932 113.778 512z m475.221-179a28.444 28.444 0 0 0-40.22-40.221l-199.111 199.11a28.444 28.444 0 0 0 0 40.221l199.11 199.111A28.444 28.444 0 0 0 589 691.001L410 512l179-179z" fill="#ffffff" /></svg>