<?xml version="1.0" encoding="utf-8"?>
<!-- Generator: Adobe Illustrator 23.0.2, SVG Export Plug-In . SVG Version: 6.00 Build 0)  -->
<svg version="1.1" id="图层_1" xmlns="http://www.w3.org/2000/svg" xmlns:xlink="http://www.w3.org/1999/xlink" x="0px" y="0px"
	 viewBox="0 0 200 200" style="enable-background:new 0 0 200 200;" xml:space="preserve">
<style type="text/css">
	.st0{fill:#FFFFFF;}
</style>
<path class="st0" d="M100,11.1c-49.1,0-88.9,39.8-88.9,88.9s39.8,88.9,88.9,88.9s88.9-39.8,88.9-88.9S149.1,11.1,100,11.1z
	 M100,177.8c-43,0-77.8-34.8-77.8-77.8S57,22.2,100,22.2S177.8,57,177.8,100S143,177.8,100,177.8z M85,65l35,35l-35,35
	c-2.1,2.2-2.1,5.6,0,7.7c2.1,2.2,5.7,2.3,7.9,0.1l38.9-38.9c2.2-2.2,2.2-5.7,0-7.9L92.8,57.2c-2.2-2.1-5.6-2.1-7.7,0
	C82.9,59.3,82.8,62.8,85,65L85,65z"/>
</svg>
