<?xml version="1.0" standalone="no"?><!DOCTYPE svg PUBLIC "-//W3C//DTD SVG 1.1//EN" "http://www.w3.org/Graphics/SVG/1.1/DTD/svg11.dtd"><svg t="1567502194869" class="icon" viewBox="0 0 1024 1024" version="1.1" xmlns="http://www.w3.org/2000/svg" p-id="1890" xmlns:xlink="http://www.w3.org/1999/xlink" width="260" height="260"><defs><style type="text/css"></style></defs><path d="M512 896c-17.7 0-32-14.3-32-32V128c0-17.7 14.3-32 32-32s32 14.3 32 32v736c0 17.7-14.3 32-32 32z" p-id="1891"></path><path d="M926.3 960H593.2c-17.5 0-34-6.8-46.3-19.1l-33.6-33.4-36 33.4C464.9 953.2 448.5 960 431 960H97.7c-23.4 0-44.5-12-56.4-32-11.9-20-12.4-44.1-1.3-64.5L454.3 98.3C465.8 77.2 487.8 64 512 64s46.3 13.2 57.8 34.3l414.3 765.2c11.1 20.4 10.6 44.5-1.3 64.5-12 20-33.1 32-56.5 32zM512 843c16.8 0 33.6 6.4 46.3 19.1l33.6 33.4 334.4 0.5-412.8-767.2h-2.9L96.2 894l334.7 2 34.8-33.9c12.7-12.7 29.5-19.1 46.3-19.1z m-29.6-729.4h0.3-0.3z" p-id="1892"></path></svg>